<?xml version="1.0" encoding="iso-8859-1"?>
<!-- Generator: Adobe Illustrator 16.0.0, SVG Export Plug-In . SVG Version: 6.00 Build 0)  -->
<!DOCTYPE svg PUBLIC "-//W3C//DTD SVG 1.1//EN" "http://www.w3.org/Graphics/SVG/1.1/DTD/svg11.dtd">
<svg version="1.1" id="Capa_1" xmlns="http://www.w3.org/2000/svg" xmlns:xlink="http://www.w3.org/1999/xlink" x="0px" y="0px"
	 width="497.199px" height="497.199px" viewBox="0 0 497.199 497.199" style="enable-background:new 0 0 497.199 497.199;"
	 xml:space="preserve">
<g>
	<g>
		<path d="M248.6,38.2C131.9,38.2,38.2,131.9,38.2,248.6c0,116.701,93.7,210.4,210.4,210.4C365.301,459,459,365.301,459,248.6
			C459,131.9,365.301,38.2,248.6,38.2z M288.801,288.801c-34.4,34.398-176,93.699-176,93.699s61.2-141.5,93.7-176
			c32.5-34.4,175.9-93.7,175.9-93.7S323.199,256.199,288.801,288.801z"/>
		<circle cx="248.6" cy="248.6" r="38.2"/>
		<path d="M248.6,0C110.9,0,0,110.9,0,248.6c0,137.701,110.9,248.6,248.6,248.6c137.701,0,248.599-110.898,248.599-248.6
			C497.199,110.9,386.301,0,248.6,0z M248.6,478.1c-126.2,0-229.5-103.299-229.5-229.5c0-126.2,103.3-229.5,229.5-229.5
			c126.201,0,229.5,103.3,229.5,229.5C478.1,374.801,374.801,478.1,248.6,478.1z"/>
	</g>
</g>
<g>
</g>
<g>
</g>
<g>
</g>
<g>
</g>
<g>
</g>
<g>
</g>
<g>
</g>
<g>
</g>
<g>
</g>
<g>
</g>
<g>
</g>
<g>
</g>
<g>
</g>
<g>
</g>
<g>
</g>
</svg>
